<svg width="1024" height="1024" viewBox="0 0 1024 1024" fill="none" xmlns="http://www.w3.org/2000/svg">
<g id="Plugin icon - 2" clip-path="url(#clip0_1001_2)">
<g id="BT">
<path id="Vector (Stroke)" d="M693.402 365.292L547.182 511.833L693.402 658.374L476.585 875.666V582.585L380.286 679.095C368.865 690.541 350.353 690.541 338.933 679.095C327.512 667.65 327.512 649.097 338.933 637.652L464.476 511.833L338.933 386.014L336.934 383.782C327.565 372.27 328.226 355.301 338.933 344.571C349.639 333.84 366.572 333.178 378.058 342.567L380.286 344.571L476.585 441.081V148L693.402 365.292ZM535.073 734.163L610.697 658.374L535.073 582.585V734.163ZM535.073 441.081L610.697 365.292L535.073 289.503V441.081Z" fill="url(#paint0_radial_1001_2)"/>
</g>
<g id="Spinner">
<g id="Vector">
<path d="M156.682 158.841C250.344 64.5971 377.609 11.4199 510.48 11.0089C643.35 10.5979 770.941 62.9867 865.185 156.649L865.279 156.742C963.717 255.312 1020.24 388.12 1023.03 527.398C1023.03 527.595 1023.03 527.792 1023.03 527.989L1023.54 693.474C1023.6 712.803 1007.98 728.522 988.653 728.581C969.323 728.641 953.605 713.02 953.545 693.69L953.033 528.552C950.546 407.439 901.375 291.964 815.779 206.238C734.709 125.701 624.972 80.6559 510.696 81.0094C396.391 81.363 286.908 127.109 206.332 208.185C192.706 221.896 170.545 221.964 156.835 208.338C143.124 194.712 143.056 172.552 156.682 158.841Z" fill="url(#paint1_radial_1001_2)"/>
<path d="M1013.22 668.757C1026.93 682.383 1027 704.544 1013.37 718.254C999.744 731.965 977.583 732.033 963.873 718.407L780.249 535.916C766.538 522.29 766.47 500.129 780.096 486.419C793.722 472.708 815.882 472.64 829.593 486.266L1013.22 668.757Z" fill="url(#paint2_radial_1001_2)"/>
</g>
<g id="Vector_2">
<path d="M817.726 815.808C831.352 802.098 853.513 802.029 867.223 815.655C880.934 829.281 881.002 851.442 867.376 865.152C773.714 959.396 646.449 1012.57 513.579 1012.98C380.709 1013.39 253.117 961.007 158.873 867.345C158.842 867.314 158.811 867.282 158.781 867.251C60.3425 768.681 3.81993 635.874 1.03253 496.596C1.02858 496.399 1.02648 496.201 1.02587 496.004L0.513965 330.52C0.45424 311.19 16.0761 295.471 35.4059 295.411C54.7357 295.352 70.4546 310.974 70.5144 330.303L71.0246 495.438C73.5109 616.552 122.684 732.029 208.281 817.756C289.351 898.293 399.087 943.338 513.363 942.985C627.668 942.631 737.15 896.884 817.726 815.808Z" fill="url(#paint3_radial_1001_2)"/>
<path d="M243.81 488.078C257.52 501.704 257.589 523.865 243.963 537.575C230.337 551.286 208.176 551.354 194.466 537.728L10.842 355.237C-2.86852 341.611 -2.93707 319.45 10.6889 305.74C24.3149 292.029 46.4756 291.961 60.1862 305.587L243.81 488.078Z" fill="url(#paint4_radial_1001_2)"/>
</g>
</g>
</g>
<defs>
<radialGradient id="paint0_radial_1001_2" cx="0" cy="0" r="1" gradientUnits="userSpaceOnUse" gradientTransform="translate(511.885 511.833) rotate(90) scale(363.833 181.518)">
<stop offset="0.413462" stop-color="#8757BC"/>
<stop offset="1" stop-color="#7C57BC"/>
</radialGradient>
<radialGradient id="paint1_radial_1001_2" cx="0" cy="0" r="1" gradientUnits="userSpaceOnUse" gradientTransform="translate(585.026 369.794) rotate(90) scale(311.93 407.883)">
<stop offset="0.413462" stop-color="#8757BC"/>
<stop offset="1" stop-color="#7C57BC"/>
</radialGradient>
<radialGradient id="paint2_radial_1001_2" cx="0" cy="0" r="1" gradientUnits="userSpaceOnUse" gradientTransform="translate(896.38 602.691) rotate(134.823) scale(0.5 129.442)">
<stop offset="0.413462" stop-color="#8757BC"/>
<stop offset="1" stop-color="#7C57BC"/>
</radialGradient>
<radialGradient id="paint3_radial_1001_2" cx="0" cy="0" r="1" gradientUnits="userSpaceOnUse" gradientTransform="translate(439.033 654.199) rotate(90) scale(311.93 407.883)">
<stop offset="0.413462" stop-color="#8757BC"/>
<stop offset="1" stop-color="#7C57BC"/>
</radialGradient>
<radialGradient id="paint4_radial_1001_2" cx="0" cy="0" r="1" gradientUnits="userSpaceOnUse" gradientTransform="translate(126.973 422.012) rotate(134.823) scale(0.5 129.442)">
<stop offset="0.413462" stop-color="#8757BC"/>
<stop offset="1" stop-color="#7C57BC"/>
</radialGradient>
<clipPath id="clip0_1001_2">
<rect width="1024" height="1024" fill="white"/>
</clipPath>
</defs>
</svg>
